PathFileType	4	(X/Y/Z)	c:/Users/goper/Files/vsCode/490R/osim_files/A03/A03_Fast_02.trc
DataRate	CameraRate	NumFrames	NumMarkers	Units                	OrigDataRate	OrigDataStartFrame	OrigNumFrames
250.00	250.00	4	36	mm	250.0	1146	3055
                Frame#	Time	LPSIS			LASIS			LTH1			LTH2			LTH3			LTH4			LLFE			LMFE			LSH1			LSH2			LSH3			LSH4			LLMAL			LMMAL			LCAL			LMTP5			LTOE			LMTP1			RPSIS			RASIS			RTH1			RTH2			RTH3			RTH4			RLFE			RMFE			RSH1			RSH2			RSH3			RSH4			RLMAL			RMMAL			RCAL			RMTP1			RTOE			RMTP5		
		X1	Y1	Z1	X2	Y2	Z2	X3	Y3	Z3	X4	Y4	Z4	X5	Y5	Z5	X6	Y6	Z6	X7	Y7	Z7	X8	Y8	Z8	X9	Y9	Z9	X10	Y10	Z10	X11	Y11	Z11	X12	Y12	Z12	X13	Y13	Z13	X14	Y14	Z14	X15	Y15	Z15	X16	Y16	Z16	X17	Y17	Z17	X18	Y18	Z18	X19	Y19	Z19	X20	Y20	Z20	X21	Y21	Z21	X22	Y22	Z22	X23	Y23	Z23	X24	Y24	Z24	X25	Y25	Z25	X26	Y26	Z26	X27	Y27	Z27	X28	Y28	Z28	X29	Y29	Z29	X30	Y30	Z30	X31	Y31	Z31	X32	Y32	Z32	X33	Y33	Z33	X34	Y34	Z34	X35	Y35	Z35	X36	Y36	Z36

1146	4.58000	1787.89722	1084.49585	247.91040	0.00000	0.00000	0.00000	1675.47205	641.42743	412.26846	1675.01221	597.97571	411.21902	1617.07019	638.31006	398.44672	1625.93384	595.94501	396.13657	1690.81909	554.07556	399.20718	1660.84314	543.46802	247.90205	1747.46765	475.72522	397.22275	1751.73975	427.26553	395.65506	1687.77124	461.65448	394.43872	1701.23401	414.57172	388.06821	1802.77002	100.93154	362.95981	0.00000	0.00000	0.00000	0.00000	0.00000	0.00000	1651.79675	41.95251	379.14417	0.00000	0.00000	0.00000	1641.94348	53.63375	265.24844	1781.24854	1084.61755	165.91438	0.00000	0.00000	0.00000	1476.44128	648.46063	38.07430	1461.25525	604.92426	43.37503	1419.05408	665.65546	50.95834	1413.94592	625.56793	52.54616	1435.59668	584.18524	58.92309	1419.19141	590.26697	181.21452	1493.41467	516.32428	45.22503	1488.66736	472.40399	32.76859	1429.62756	504.86353	54.26880	0.00000	0.00000	0.00000	1504.89319	157.88644	76.57738	0.00000	0.00000	0.00000	0.00000	0.00000	0.00000	1366.47034	82.95223	193.54787	1331.44080	107.16557	145.04713	1353.02185	68.23532	79.25807
1147	4.58400	1782.13269	1083.82947	247.33862	0.00000	0.00000	0.00000	1673.09998	641.30420	411.87585	1672.98315	597.75842	410.74933	1614.68176	637.54987	398.07111	1623.94861	595.27777	395.72491	1689.33264	553.95789	398.68719	1659.37622	543.15094	247.46175	1746.35303	475.78156	396.80157	1750.77478	427.33557	395.28271	1686.57764	461.47961	393.97516	1701.82690	416.13470	388.41968	1802.73022	101.05656	362.89816	0.00000	0.00000	0.00000	0.00000	0.00000	0.00000	1651.77356	41.93580	379.13840	0.00000	0.00000	0.00000	1641.64099	53.29338	265.32455	1775.24536	1083.81055	165.41527	0.00000	0.00000	0.00000	1470.55798	647.41827	38.48077	0.00000	0.00000	0.00000	1413.26782	664.75470	51.53732	1407.43494	623.64417	53.59321	1429.48975	583.24750	59.45239	1421.98352	587.43347	180.63269	1485.80554	514.21399	45.48311	1479.90491	470.36090	32.91493	1419.95801	505.08035	52.94367	0.00000	0.00000	0.00000	0.00000	0.00000	0.00000	0.00000	0.00000	0.00000	0.00000	0.00000	0.00000	1345.48315	83.88351	192.13394	1312.26733	109.75622	143.90376	1332.66028	70.21820	77.97732
1148	4.58800	1776.32544	1083.10535	246.76065	0.00000	0.00000	0.00000	1670.67114	641.11761	411.42932	1670.93225	597.51251	410.25223	1612.25574	636.77454	397.66977	1620.88403	593.50677	395.09402	1687.92102	553.88751	398.19754	1659.59570	543.26208	246.54689	1745.18030	475.82568	396.37057	1749.80957	427.44058	394.91925	1685.44763	461.36310	393.56918	1700.76489	415.99786	387.98788	1802.55615	101.01479	362.83344	0.00000	0.00000	0.00000	0.00000	0.00000	0.00000	1651.73730	41.88213	379.10086	0.00000	0.00000	0.00000	1641.54980	53.24881	265.30441	1769.19604	1082.95410	164.96121	0.00000	0.00000	0.00000	1464.89758	646.30554	38.84435	1449.46362	602.86261	44.19734	0.00000	0.00000	0.00000	1401.51343	622.41925	54.11599	1423.49988	582.21442	59.98548	1407.40881	587.82245	181.33005	1478.28650	512.09680	45.75067	1471.30859	468.31311	33.06726	1412.56055	504.65051	53.64434	0.00000	0.00000	0.00000	1469.67139	153.52179	75.10397	0.00000	0.00000	0.00000	0.00000	0.00000	0.00000	1326.20166	85.97205	191.19884	1292.88074	112.39645	143.02226	1312.44141	72.53607	76.76277
1149	4.59200	1770.48608	1082.32568	246.16414	0.00000	0.00000	0.00000	1668.20056	640.88110	410.95691	1668.87720	597.25024	409.79276	1608.68774	635.54626	396.30661	1618.91223	592.81396	394.66840	1686.52075	553.81750	397.71353	1657.96021	542.73596	245.73610	1744.01880	475.84995	395.90359	1748.69214	427.39722	394.46658	1684.41614	461.30042	393.20514	1699.77332	415.89670	387.59857	1802.50586	101.09227	362.80429	0.00000	0.00000	0.00000	0.00000	0.00000	0.00000	1651.78210	41.88423	379.14343	0.00000	0.00000	0.00000	1641.45154	53.14673	265.31805	1763.16870	1082.05432	164.46956	0.00000	0.00000	0.00000	1459.20398	644.91113	39.40715	1443.81750	601.75385	44.56194	0.00000	0.00000	0.00000	1395.89148	621.23572	54.50933	1417.73230	581.10663	60.50378	1411.43848	585.06531	181.43678	1470.91125	509.99475	46.04835	1462.79419	466.32327	33.24913	1405.10071	504.24402	53.98381	0.00000	0.00000	0.00000	1451.77502	151.49776	74.00858	0.00000	0.00000	0.00000	1515.88879	104.20234	122.62148	1305.44568	87.62059	189.69293	1273.87708	115.68580	141.91716	1291.48132	75.30592	74.43766
